HIERARCHY
ROOT Hips
{
	OFFSET 0.000000 71.427986 0.000000
	CHANNELS 6 Xposition Yposition Zposition Xrotation Yrotation Zrotation
	JOINT Pelvis
	{
		OFFSET 0.000000 0.000000 0.000000
		CHANNELS 3 Xrotation Yrotation Zrotation
		JOINT LeftUpLeg
		{
			OFFSET 6.797100 -2.508499 -1.318700
			CHANNELS 3 Xrotation Yrotation Zrotation
			JOINT LeftLeg
			{
				OFFSET 0.069008 -29.241863 0.690200
				CHANNELS 3 Xrotation Yrotation Zrotation
				JOINT LeftFoot
				{
					OFFSET -0.069008 -29.568123 -0.266800
					CHANNELS 3 Xrotation Yrotation Zrotation
					JOINT LeftToeBase
					{
						OFFSET 3.145500 -8.631000 16.059900
						CHANNELS 3 Xrotation Yrotation Zrotation
						End Site
						{
							OFFSET 0.000000 18.501587 0.000000
						}
					}
				}
			}
			JOINT Left_ShortSleeve
			{
				OFFSET 0.265923 -10.480953 1.153800
				CHANNELS 3 Xrotation Yrotation Zrotation
				End Site
				{
					OFFSET 1.725763 19.823879 0.000000
				}
			}
		}
		JOINT RightUpLeg
		{
			OFFSET -6.797100 -2.508499 -1.318700
			CHANNELS 3 Xrotation Yrotation Zrotation
			JOINT RightLeg
			{
				OFFSET -0.082453 -29.241932 0.688000
				CHANNELS 3 Xrotation Yrotation Zrotation
				JOINT RightFoot
				{
					OFFSET 0.082453 -29.568058 -0.264600
					CHANNELS 3 Xrotation Yrotation Zrotation
					JOINT RightToeBase
					{
						OFFSET -3.115300 -8.682800 16.113400
						CHANNELS 3 Xrotation Yrotation Zrotation
						End Site
						{
							OFFSET 0.000000 18.567114 0.000000
						}
					}
				}
			}
			JOINT Right_ShortSleeve
			{
				OFFSET -0.265923 -10.480953 1.153800
				CHANNELS 3 Xrotation Yrotation Zrotation
				End Site
				{
					OFFSET -1.725766 19.823910 0.000000
				}
			}
		}
	}
	JOINT Spine
	{
		OFFSET 0.000000 13.368103 0.470500
		CHANNELS 3 Xrotation Yrotation Zrotation
		JOINT Spine1
		{
			OFFSET 0.147000 13.837402 0.538800
			CHANNELS 3 Xrotation Yrotation Zrotation
			JOINT Spine2
			{
				OFFSET 0.168000 16.242897 -1.435500
				CHANNELS 3 Xrotation Yrotation Zrotation
				JOINT Neck
				{
					OFFSET 0.217200 18.631500 -1.679100
					CHANNELS 3 Xrotation Yrotation Zrotation
					JOINT Head
					{
						OFFSET 0.000000 6.599396 1.385900
						CHANNELS 3 Xrotation Yrotation Zrotation
						JOINT Hat
						{
							OFFSET -0.532200 27.220596 -10.096100
							CHANNELS 3 Xrotation Yrotation Zrotation
							End Site
							{
								OFFSET 0.000000 22.029861 0.000000
							}
						}
						JOINT HairD
						{
							OFFSET -10.777400 17.437393 -1.325900
							CHANNELS 3 Xrotation Yrotation Zrotation
							JOINT HairD1
							{
								OFFSET -3.290299 -11.051193 1.062200
								CHANNELS 3 Xrotation Yrotation Zrotation
								End Site
								{
									OFFSET 0.000000 11.579437 0.000000
								}
							}
						}
						JOINT HairB
						{
							OFFSET -10.777400 17.437393 1.467900
							CHANNELS 3 Xrotation Yrotation Zrotation
							JOINT HairB1
							{
								OFFSET -1.561200 -12.956299 3.590200
								CHANNELS 3 Xrotation Yrotation Zrotation
								End Site
								{
									OFFSET 0.000000 13.534866 0.000000
								}
							}
						}
						JOINT HairA
						{
							OFFSET 9.713100 17.437393 1.467900
							CHANNELS 3 Xrotation Yrotation Zrotation
							JOINT HairA1
							{
								OFFSET 1.561200 -12.956299 3.590200
								CHANNELS 3 Xrotation Yrotation Zrotation
								End Site
								{
									OFFSET 0.000000 13.534866 0.000000
								}
							}
						}
						JOINT HairC
						{
							OFFSET 9.713100 17.437393 -1.325900
							CHANNELS 3 Xrotation Yrotation Zrotation
							JOINT HairC1
							{
								OFFSET 3.290300 -11.051193 1.062200
								CHANNELS 3 Xrotation Yrotation Zrotation
								End Site
								{
									OFFSET 0.000000 11.579437 0.000000
								}
							}
						}
					}
				}
				JOINT LeftShoulder
				{
					OFFSET 5.101800 15.108002 -2.763700
					CHANNELS 3 Xrotation Yrotation Zrotation
					JOINT LeftArm
					{
						OFFSET 9.825497 2.506317 -1.597400
						CHANNELS 3 Xrotation Yrotation Zrotation
						JOINT LeftForeArm
						{
							OFFSET 21.966244 0.000000 0.000000
							CHANNELS 3 Xrotation Yrotation Zrotation
							JOINT LeftHand
							{
								OFFSET 33.879036 0.000000 0.000000
								CHANNELS 3 Xrotation Yrotation Zrotation
								JOINT LeftHandThumb1
								{
									OFFSET 6.715286 -2.359680 3.363841
									CHANNELS 3 Xrotation Yrotation Zrotation
									JOINT LeftHandThumb2
									{
										OFFSET 2.507072 -1.447464 1.447461
										CHANNELS 3 Xrotation Yrotation Zrotation
										JOINT LeftHandThumb3
										{
											OFFSET 2.898338 -1.673355 1.673357
											CHANNELS 3 Xrotation Yrotation Zrotation
											End Site
											{
												OFFSET -0.295959 3.727692 -0.131651
											}
										}
									}
								}
								JOINT LeftHandIndex1
								{
									OFFSET 14.190811 -0.254547 3.840278
									CHANNELS 3 Xrotation Yrotation Zrotation
									JOINT LeftHandIndex2
									{
										OFFSET 3.551727 0.000000 -0.000000
										CHANNELS 3 Xrotation Yrotation Zrotation
										JOINT LeftHandIndex3
										{
											OFFSET 2.894196 0.000000 0.000000
											CHANNELS 3 Xrotation Yrotation Zrotation
											End Site
											{
												OFFSET -1.000603 2.690872 0.366626
											}
										}
									}
								}
								JOINT LeftHandMiddle1
								{
									OFFSET 13.776489 0.000000 0.000000
									CHANNELS 3 Xrotation Yrotation Zrotation
									JOINT LeftHandMiddle2
									{
										OFFSET 3.438232 0.000000 0.000000
										CHANNELS 3 Xrotation Yrotation Zrotation
										JOINT LeftHandMiddle3
										{
											OFFSET 3.691551 0.000000 0.000000
											CHANNELS 3 Xrotation Yrotation Zrotation
											End Site
											{
												OFFSET -1.082298 3.499527 0.457670
											}
										}
									}
								}
								JOINT LeftHandRing1
								{
									OFFSET 13.966164 -0.268127 -3.067488
									CHANNELS 3 Xrotation Yrotation Zrotation
									JOINT LeftHandRing2
									{
										OFFSET 3.162567 0.000000 0.000000
										CHANNELS 3 Xrotation Yrotation Zrotation
										JOINT LeftHandRing3
										{
											OFFSET 3.324348 0.000000 0.000000
											CHANNELS 3 Xrotation Yrotation Zrotation
											End Site
											{
												OFFSET -0.861900 3.184998 0.405154
											}
										}
									}
								}
								JOINT LeftHandPinky1
								{
									OFFSET 13.131393 -0.168503 -5.746925
									CHANNELS 3 Xrotation Yrotation Zrotation
									JOINT LeftHandPinky2
									{
										OFFSET 2.849182 0.000000 0.000000
										CHANNELS 3 Xrotation Yrotation Zrotation
										JOINT LeftHandPinky3
										{
											OFFSET 2.805038 0.000000 0.000000
											CHANNELS 3 Xrotation Yrotation Zrotation
											End Site
											{
												OFFSET -0.882500 2.642609 0.325652
											}
										}
									}
								}
							}
							JOINT Left_Sleeve
							{
								OFFSET 6.592125 -0.646545 0.805568
								CHANNELS 3 Xrotation Yrotation Zrotation
								End Site
								{
									OFFSET -0.000179 20.275787 -0.000000
								}
							}
						}
					}
				}
				JOINT RightShoulder
				{
					OFFSET -5.731700 15.108002 -2.763700
					CHANNELS 3 Xrotation Yrotation Zrotation
					JOINT RightArm
					{
						OFFSET -9.825497 2.506317 -1.597400
						CHANNELS 3 Xrotation Yrotation Zrotation
						JOINT RightForeArm
						{
							OFFSET -21.966242 0.000000 0.000000
							CHANNELS 3 Xrotation Yrotation Zrotation
							JOINT RightHand
							{
								OFFSET -33.879032 0.000000 0.000000
								CHANNELS 3 Xrotation Yrotation Zrotation
								JOINT RightHandThumb1
								{
									OFFSET -6.715286 -2.359680 3.363841
									CHANNELS 3 Xrotation Yrotation Zrotation
									JOINT RightHandThumb2
									{
										OFFSET -2.507072 -1.447464 1.447461
										CHANNELS 3 Xrotation Yrotation Zrotation
										JOINT RightHandThumb3
										{
											OFFSET -2.898338 -1.673355 1.673357
											CHANNELS 3 Xrotation Yrotation Zrotation
											End Site
											{
												OFFSET 0.295959 3.727692 -0.131651
											}
										}
									}
								}
								JOINT RightHandIndex1
								{
									OFFSET -14.190811 -0.254547 3.840278
									CHANNELS 3 Xrotation Yrotation Zrotation
									JOINT RightHandIndex2
									{
										OFFSET -3.551727 0.000000 -0.000000
										CHANNELS 3 Xrotation Yrotation Zrotation
										JOINT RightHandIndex3
										{
											OFFSET -2.894196 0.000000 0.000000
											CHANNELS 3 Xrotation Yrotation Zrotation
											End Site
											{
												OFFSET 1.000603 2.690872 0.366626
											}
										}
									}
								}
								JOINT RightHandMiddle1
								{
									OFFSET -13.776489 0.000000 0.000000
									CHANNELS 3 Xrotation Yrotation Zrotation
									JOINT RightHandMiddle2
									{
										OFFSET -3.438232 0.000000 0.000000
										CHANNELS 3 Xrotation Yrotation Zrotation
										JOINT RightHandMiddle3
										{
											OFFSET -3.691551 0.000000 0.000000
											CHANNELS 3 Xrotation Yrotation Zrotation
											End Site
											{
												OFFSET 1.082298 3.499527 0.457670
											}
										}
									}
								}
								JOINT RightHandRing1
								{
									OFFSET -13.966164 -0.268127 -3.067488
									CHANNELS 3 Xrotation Yrotation Zrotation
									JOINT RightHandRing2
									{
										OFFSET -3.162567 0.000000 0.000000
										CHANNELS 3 Xrotation Yrotation Zrotation
										JOINT RightHandRing3
										{
											OFFSET -3.324348 0.000000 0.000000
											CHANNELS 3 Xrotation Yrotation Zrotation
											End Site
											{
												OFFSET 0.861900 3.184998 0.405154
											}
										}
									}
								}
								JOINT RightHandPinky1
								{
									OFFSET -13.131393 -0.168503 -5.746925
									CHANNELS 3 Xrotation Yrotation Zrotation
									JOINT RightHandPinky2
									{
										OFFSET -2.849182 0.000000 0.000000
										CHANNELS 3 Xrotation Yrotation Zrotation
										JOINT RightHandPinky3
										{
											OFFSET -2.805038 0.000000 0.000000
											CHANNELS 3 Xrotation Yrotation Zrotation
											End Site
											{
												OFFSET 0.882500 2.642609 0.325652
											}
										}
									}
								}
							}
							JOINT Right_Sleeve
							{
								OFFSET -6.592125 -0.646545 0.805568
								CHANNELS 3 Xrotation Yrotation Zrotation
								End Site
								{
									OFFSET 0.000179 20.275787 -0.000000
								}
							}
						}
					}
				}
				JOINT Bind_Right_JacketString
				{
					OFFSET -3.534800 11.969597 7.200700
					CHANNELS 3 Xrotation Yrotation Zrotation
					JOINT Bind_Right_JacketString1
					{
						OFFSET -0.319900 -6.102600 2.794100
						CHANNELS 3 Xrotation Yrotation Zrotation
						End Site
						{
							OFFSET 0.000000 6.719452 0.000000
						}
					}
				}
				JOINT Bind_Left_JacketString
				{
					OFFSET 2.904800 11.969597 7.200700
					CHANNELS 3 Xrotation Yrotation Zrotation
					JOINT Bind_Left_JacketString1
					{
						OFFSET 0.364800 -5.904503 3.186800
						CHANNELS 3 Xrotation Yrotation Zrotation
						End Site
						{
							OFFSET 0.000000 6.719513 0.000000
						}
					}
				}
				JOINT HairE
				{
					OFFSET 5.915200 17.612701 -11.592200
					CHANNELS 3 Xrotation Yrotation Zrotation
					JOINT HairE1
					{
						OFFSET 0.289200 -7.171898 -1.284500
						CHANNELS 3 Xrotation Yrotation Zrotation
						End Site
						{
							OFFSET 0.000000 7.291756 0.000000
						}
					}
				}
				JOINT HairF
				{
					OFFSET -0.864800 17.612701 -11.592200
					CHANNELS 3 Xrotation Yrotation Zrotation
					JOINT HairF1
					{
						OFFSET 0.000000 -14.087097 -2.127501
						CHANNELS 3 Xrotation Yrotation Zrotation
						End Site
						{
							OFFSET 0.000000 14.246841 0.000000
						}
					}
				}
				JOINT HairG
				{
					OFFSET -8.087700 17.612701 -11.592200
					CHANNELS 3 Xrotation Yrotation Zrotation
					JOINT HairG1
					{
						OFFSET -0.293600 -6.081398 -0.910100
						CHANNELS 3 Xrotation Yrotation Zrotation
						End Site
						{
							OFFSET 0.000000 6.156120 0.000000
						}
					}
				}
			}
		}
	}
	JOINT Pouch
	{
		OFFSET 0.000000 4.394501 10.847300
		CHANNELS 3 Xrotation Yrotation Zrotation
		End Site
		{
			OFFSET 0.000000 21.880577 0.000000
		}
	}
	JOINT Bag
	{
		OFFSET -13.229000 4.813004 -0.593300
		CHANNELS 3 Xrotation Yrotation Zrotation
		End Site
		{
			OFFSET 0.000000 21.880577 0.000000
		}
	}
	JOINT OccupyGuyFacialAnim_Joint
	{
		OFFSET 1.000000 -70.206398 -1.655000
		CHANNELS 3 Xrotation Yrotation Zrotation
		End Site
		{
			OFFSET 0.000000 21.880577 0.000000
		}
	}
}
MOTION
Frames: 4
Frame Time: 0.033333
-0.351353 56.633873 1.128474 15.097662 -13.379884 7.075595 0.000000 0.000002 -0.000000 -67.877334 0.811824 12.846796 67.402595 7.923152 -2.389244 -11.387648 5.196903 -9.649996 0.000000 0.000000 0.000000 0.000002 -0.000001 -0.000000 -55.621485 3.686430 -4.574883 81.162229 -1.707078 -3.355870 -39.384240 -5.932070 5.324112 -0.000000 -0.000000 -0.000000 0.000000 -0.000000 0.000000 23.638317 -7.372513 -9.410943 5.016126 -1.319582 -2.969952 5.045702 -1.230574 -2.940708 1.800983 1.704565 1.488713 -41.775643 15.196606 9.147958 -0.000000 0.000000 0.000000 -0.000000 0.000000 0.000000 -0.000000 0.000000 0.000000 -0.000000 0.000000 0.000000 -0.000000 0.000000 -0.000000 -0.000000 0.000000 0.000000 -0.000000 0.000000 -0.000000 -0.000000 0.000000 0.000000 -0.000000 0.000000 0.000000 3.683489 -17.494075 -8.176227 -32.788617 25.692670 -51.299901 0.000092 -83.763234 0.000122 -132.705986 11.066420 1.883864 30.451200 -20.046212 25.680973 -27.513240 19.080518 -8.263460 -0.000000 0.000002 -0.000004 -2.669812 2.305228 -46.776592 3.336444 5.284803 -64.508487 0.000003 0.000004 -0.000003 1.386228 6.383510 -56.671377 3.163567 5.199262 -62.616183 0.000000 0.000003 0.000001 5.496170 8.484670 -68.009437 3.826838 5.490905 -69.727243 -0.000001 0.000000 -0.000002 8.530644 9.063746 -75.502837 2.845670 5.022551 -59.048966 -0.000001 0.000000 0.000001 0.000001 -0.000000 0.000000 0.280549 26.594660 10.033978 -1.453564 36.574505 24.137335 -0.000042 104.645615 0.000042 -21.182566 -20.819293 8.621879 61.632212 28.897718 -13.280779 0.330331 -35.814821 7.397294 -0.000003 -0.000002 -0.000001 -0.575483 -0.947553 17.139378 0.321363 -1.701663 21.388406 0.000000 -0.000001 0.000000 0.670071 -5.101768 53.857732 5.248149 -4.619606 97.298080 -0.000001 -0.000001 -0.000003 7.412622 -8.470598 67.075470 3.825484 -4.582459 79.701839 -0.000001 -0.000001 -0.000001 7.484590 -8.453017 67.591757 1.968020 -3.803719 54.700950 0.000006 0.000002 -0.000003 -0.000001 0.000000 -0.000001 -0.000001 0.000000 -0.000001 -0.000001 -0.000001 0.000000 -0.000001 0.000000 0.000000 -0.000001 0.000000 0.000000 -0.000001 0.000000 -0.000001 -0.000001 -0.000001 0.000000 -0.000001 0.000000 0.000000 -0.000001 0.000000 0.000000 -0.000001 0.000000 -0.000001 -0.000001 -0.000001 0.000000 0.000000 0.000002 -0.000000 0.000000 0.000002 -0.000000 0.000000 0.000002 -0.000000 
-0.736404 56.612419 0.316784 15.030204 -12.105260 6.721806 -0.000001 -0.000000 0.000000 -68.410710 0.691891 12.881462 65.986471 6.771653 -2.389463 -9.760843 5.037136 -9.188479 -0.000000 -0.000001 0.000000 0.000002 -0.000000 0.000000 -56.248305 3.363035 -4.525122 81.273138 0.539078 -3.383820 -39.146393 -5.127119 3.896033 0.000000 -0.000001 -0.000000 -0.000000 0.000000 -0.000000 23.753793 -7.617217 -9.243405 5.034361 -1.391478 -2.933483 5.066393 -1.301120 -2.900435 1.833169 1.704566 1.492586 -41.770538 15.114295 9.053739 0.000001 -0.000000 -0.000000 0.000001 -0.000000 -0.000000 0.000001 -0.000000 0.000000 0.000001 -0.000000 -0.000000 0.000001 -0.000000 -0.000000 0.000001 -0.000000 -0.000000 0.000001 -0.000000 -0.000000 0.000001 -0.000000 -0.000000 0.000001 -0.000000 -0.000000 3.666741 -17.675556 -8.085753 -32.814920 25.505656 -51.252705 -0.000090 -83.525700 -0.000101 -132.719673 11.087126 1.702499 30.492768 -20.036625 25.794488 -27.513240 19.080519 -8.263462 0.000003 -0.000000 -0.000001 -2.669677 2.290154 -46.676673 3.336451 5.284829 -64.508487 -0.000002 0.000002 -0.000002 1.379131 6.375527 -56.570082 3.163559 5.199231 -62.616190 0.000002 0.000002 -0.000003 5.485149 8.483923 -67.906355 3.826837 5.490923 -69.727263 -0.000002 0.000001 0.000001 8.518480 9.068448 -75.398786 2.845687 5.022530 -59.048966 -0.000001 -0.000001 0.000003 0.000001 -0.000001 0.000001 0.238796 26.546468 10.292830 -1.596999 36.291647 24.370007 -0.000058 104.672656 0.000057 -20.777309 -20.885308 8.911473 61.632212 28.897714 -13.280774 0.330340 -35.814824 7.397289 0.000002 0.000001 0.000002 -0.575485 -0.947558 17.139374 0.321364 -1.701662 21.388403 -0.000002 -0.000001 0.000000 0.670069 -5.101777 53.857732 5.248147 -4.619605 97.298080 -0.000001 0.000000 -0.000001 7.412619 -8.470602 67.075470 3.825485 -4.582457 79.701846 -0.000000 -0.000002 -0.000002 7.484590 -8.453023 67.591764 1.968023 -3.803723 54.700950 0.000003 0.000001 0.000002 0.000001 0.000000 0.000003 -0.000004 -0.000002 -0.000001 -0.000002 -0.000000 0.000000 -0.000004 -0.000002 0.000000 -0.000004 -0.000002 0.000000 -0.000004 -0.000002 -0.000001 -0.000002 -0.000000 0.000000 -0.000004 -0.000002 0.000000 -0.000004 -0.000002 0.000000 -0.000004 -0.000002 -0.000001 -0.000002 -0.000000 0.000000 -0.000001 -0.000000 0.000000 -0.000001 -0.000000 0.000000 -0.000001 -0.000000 0.000000 
-1.414872 56.717232 -0.640907 15.202784 -10.324803 6.108793 -0.000000 0.000000 -0.000000 -68.961592 0.475448 13.068212 63.616437 5.109650 -2.379137 -7.507664 4.848613 -8.711065 0.000000 0.000000 0.000000 -0.000001 0.000000 0.000000 -56.930224 2.692197 -4.020010 80.926567 2.074207 -3.451796 -38.555523 -4.161793 2.620671 0.000000 0.000000 -0.000000 -0.000002 0.000001 -0.000000 23.796893 -7.841972 -9.029030 5.028433 -1.462040 -2.881327 5.063383 -1.370656 -2.844523 1.858530 1.715891 1.514508 -41.946412 15.180042 8.999183 -0.000000 -0.000000 0.000000 -0.000000 -0.000000 0.000000 -0.000000 -0.000000 0.000000 -0.000000 -0.000000 0.000000 -0.000000 -0.000000 0.000000 -0.000000 -0.000000 0.000000 -0.000000 -0.000000 0.000000 -0.000000 -0.000000 0.000000 -0.000000 -0.000000 0.000000 3.668697 -17.699646 -7.972039 -32.646224 25.142877 -51.503465 -0.000143 -83.304539 -0.000147 -132.526639 11.086135 1.466780 30.435535 -20.046445 25.637609 -27.513237 19.080519 -8.263455 -0.000001 -0.000002 0.000002 -2.669860 2.310788 -46.813379 3.336445 5.284845 -64.508487 -0.000001 0.000001 -0.000000 1.388855 6.386451 -56.708534 3.163547 5.199230 -62.616176 -0.000001 0.000002 -0.000003 5.500236 8.484967 -68.047249 3.826844 5.490918 -69.727243 -0.000002 0.000003 -0.000000 8.535123 9.062056 -75.540963 2.845660 5.022526 -59.048952 -0.000000 -0.000001 0.000001 0.000000 0.000005 -0.000001 0.177471 26.509228 10.657967 -1.524808 35.695108 24.576153 0.000006 104.879276 -0.000006 -20.283992 -20.843019 9.228012 61.632212 28.897714 -13.280770 0.330335 -35.814824 7.397289 0.000001 0.000002 0.000002 -0.575482 -0.947565 17.139376 0.321367 -1.701666 21.388403 -0.000000 0.000001 -0.000003 0.670069 -5.101776 53.857732 5.248149 -4.619610 97.298080 0.000001 -0.000002 -0.000001 7.412621 -8.470604 67.075463 3.825484 -4.582458 79.701839 0.000005 -0.000001 -0.000000 7.484590 -8.453025 67.591757 1.968018 -3.803726 54.700950 -0.000000 0.000003 0.000001 0.000001 0.000002 0.000000 0.000001 -0.000001 -0.000001 -0.000002 0.000001 0.000000 0.000001 -0.000001 0.000000 0.000001 -0.000001 0.000000 0.000001 -0.000001 -0.000001 -0.000002 0.000001 0.000000 0.000001 -0.000001 0.000000 0.000001 -0.000001 0.000000 0.000001 -0.000001 -0.000001 -0.000002 0.000001 0.000000 -0.000000 0.000000 -0.000000 -0.000000 0.000000 -0.000000 -0.000000 0.000000 -0.000000 
-2.387017 56.921303 -1.688503 15.620919 -7.837246 5.371273 0.000001 -0.000001 0.000001 -69.477463 0.345667 13.123455 60.185414 2.973042 -2.344415 -4.599755 4.587022 -8.274650 0.000000 -0.000001 -0.000000 -0.000001 0.000001 -0.000001 -57.674295 1.803540 -3.284228 80.245645 2.762776 -3.500088 -37.741518 -3.368289 1.518238 -0.000000 -0.000000 -0.000000 0.000002 0.000000 -0.000000 23.687335 -8.123670 -8.817370 5.021139 -1.554267 -2.828970 5.058463 -1.462548 -2.787120 1.896894 1.736084 1.554973 -42.216829 15.312927 8.961274 0.000001 0.000000 0.000000 0.000001 0.000000 0.000000 0.000001 0.000000 -0.000000 0.000001 0.000000 0.000000 0.000001 0.000000 -0.000000 0.000001 0.000000 0.000000 0.000001 0.000000 -0.000000 0.000001 0.000000 0.000000 0.000001 0.000000 0.000000 3.682025 -17.644351 -7.788946 -32.218842 24.781931 -52.133639 0.000176 -83.168031 0.000179 -132.100899 11.044821 1.254994 30.439947 -20.084129 25.662079 -27.513240 19.080516 -8.263453 -0.000001 0.000001 -0.000002 -2.669854 2.309894 -46.807566 3.336459 5.284865 -64.508473 0.000002 0.000005 -0.000003 1.388483 6.386029 -56.703336 3.163556 5.199239 -62.616183 0.000001 0.000001 -0.000001 5.499594 8.484902 -68.041313 3.826834 5.490899 -69.727263 -0.000000 0.000000 -0.000001 8.534375 9.062325 -75.534659 2.845690 5.022525 -59.048952 -0.000002 0.000001 0.000003 -0.000001 0.000000 0.000000 0.114057 26.487334 11.027437 -1.267709 34.765246 24.826397 -0.000059 105.272101 0.000054 -19.788390 -20.720549 9.580773 61.632205 28.897714 -13.280779 0.330339 -35.814828 7.397290 -0.000000 0.000003 0.000000 -0.575487 -0.947560 17.139380 0.321364 -1.701669 21.388406 -0.000000 -0.000001 0.000002 0.670069 -5.101775 53.857732 5.248144 -4.619608 97.298080 0.000001 0.000000 -0.000001 7.412619 -8.470597 67.075470 3.825484 -4.582459 79.701833 0.000000 -0.000001 -0.000002 7.484589 -8.453021 67.591757 1.968014 -3.803726 54.700943 -0.000001 0.000001 0.000002 0.000003 0.000002 -0.000001 0.000002 -0.000000 0.000000 0.000002 0.000001 0.000000 0.000002 -0.000000 0.000000 0.000002 -0.000000 0.000000 0.000002 -0.000000 0.000000 0.000002 0.000001 0.000000 0.000002 -0.000000 0.000000 0.000002 -0.000000 0.000000 0.000002 -0.000000 0.000000 0.000002 0.000001 0.000000 0.000001 -0.000001 0.000001 0.000001 -0.000001 0.000001 0.000001 -0.000001 0.000001 
